G04 #@! TF.GenerationSoftware,KiCad,Pcbnew,7.0.7*
G04 #@! TF.CreationDate,2023-11-29T17:44:09-05:00*
G04 #@! TF.ProjectId,PCB V1 ATV,50434220-5631-4204-9154-562e6b696361,rev?*
G04 #@! TF.SameCoordinates,Original*
G04 #@! TF.FileFunction,AssemblyDrawing,Top*
%FSLAX46Y46*%
G04 Gerber Fmt 4.6, Leading zero omitted, Abs format (unit mm)*
G04 Created by KiCad (PCBNEW 7.0.7) date 2023-11-29 17:44:09*
%MOMM*%
%LPD*%
G01*
G04 APERTURE LIST*
%ADD10C,0.150000*%
%ADD11C,0.100000*%
G04 APERTURE END LIST*
D10*
X191148819Y-92713333D02*
X191863104Y-92713333D01*
X191863104Y-92713333D02*
X192005961Y-92760952D01*
X192005961Y-92760952D02*
X192101200Y-92856190D01*
X192101200Y-92856190D02*
X192148819Y-92999047D01*
X192148819Y-92999047D02*
X192148819Y-93094285D01*
X191148819Y-92332380D02*
X191148819Y-91665714D01*
X191148819Y-91665714D02*
X192148819Y-92094285D01*
X127606666Y-100724819D02*
X127606666Y-101439104D01*
X127606666Y-101439104D02*
X127559047Y-101581961D01*
X127559047Y-101581961D02*
X127463809Y-101677200D01*
X127463809Y-101677200D02*
X127320952Y-101724819D01*
X127320952Y-101724819D02*
X127225714Y-101724819D01*
X128606666Y-101724819D02*
X128035238Y-101724819D01*
X128320952Y-101724819D02*
X128320952Y-100724819D01*
X128320952Y-100724819D02*
X128225714Y-100867676D01*
X128225714Y-100867676D02*
X128130476Y-100962914D01*
X128130476Y-100962914D02*
X128035238Y-101010533D01*
X150466666Y-100724819D02*
X150466666Y-101439104D01*
X150466666Y-101439104D02*
X150419047Y-101581961D01*
X150419047Y-101581961D02*
X150323809Y-101677200D01*
X150323809Y-101677200D02*
X150180952Y-101724819D01*
X150180952Y-101724819D02*
X150085714Y-101724819D01*
X150847619Y-100724819D02*
X151466666Y-100724819D01*
X151466666Y-100724819D02*
X151133333Y-101105771D01*
X151133333Y-101105771D02*
X151276190Y-101105771D01*
X151276190Y-101105771D02*
X151371428Y-101153390D01*
X151371428Y-101153390D02*
X151419047Y-101201009D01*
X151419047Y-101201009D02*
X151466666Y-101296247D01*
X151466666Y-101296247D02*
X151466666Y-101534342D01*
X151466666Y-101534342D02*
X151419047Y-101629580D01*
X151419047Y-101629580D02*
X151371428Y-101677200D01*
X151371428Y-101677200D02*
X151276190Y-101724819D01*
X151276190Y-101724819D02*
X150990476Y-101724819D01*
X150990476Y-101724819D02*
X150895238Y-101677200D01*
X150895238Y-101677200D02*
X150847619Y-101629580D01*
X173326666Y-100724819D02*
X173326666Y-101439104D01*
X173326666Y-101439104D02*
X173279047Y-101581961D01*
X173279047Y-101581961D02*
X173183809Y-101677200D01*
X173183809Y-101677200D02*
X173040952Y-101724819D01*
X173040952Y-101724819D02*
X172945714Y-101724819D01*
X174279047Y-100724819D02*
X173802857Y-100724819D01*
X173802857Y-100724819D02*
X173755238Y-101201009D01*
X173755238Y-101201009D02*
X173802857Y-101153390D01*
X173802857Y-101153390D02*
X173898095Y-101105771D01*
X173898095Y-101105771D02*
X174136190Y-101105771D01*
X174136190Y-101105771D02*
X174231428Y-101153390D01*
X174231428Y-101153390D02*
X174279047Y-101201009D01*
X174279047Y-101201009D02*
X174326666Y-101296247D01*
X174326666Y-101296247D02*
X174326666Y-101534342D01*
X174326666Y-101534342D02*
X174279047Y-101629580D01*
X174279047Y-101629580D02*
X174231428Y-101677200D01*
X174231428Y-101677200D02*
X174136190Y-101724819D01*
X174136190Y-101724819D02*
X173898095Y-101724819D01*
X173898095Y-101724819D02*
X173802857Y-101677200D01*
X173802857Y-101677200D02*
X173755238Y-101629580D01*
X118462666Y-44844819D02*
X118462666Y-45559104D01*
X118462666Y-45559104D02*
X118415047Y-45701961D01*
X118415047Y-45701961D02*
X118319809Y-45797200D01*
X118319809Y-45797200D02*
X118176952Y-45844819D01*
X118176952Y-45844819D02*
X118081714Y-45844819D01*
X118891238Y-44940057D02*
X118938857Y-44892438D01*
X118938857Y-44892438D02*
X119034095Y-44844819D01*
X119034095Y-44844819D02*
X119272190Y-44844819D01*
X119272190Y-44844819D02*
X119367428Y-44892438D01*
X119367428Y-44892438D02*
X119415047Y-44940057D01*
X119415047Y-44940057D02*
X119462666Y-45035295D01*
X119462666Y-45035295D02*
X119462666Y-45130533D01*
X119462666Y-45130533D02*
X119415047Y-45273390D01*
X119415047Y-45273390D02*
X118843619Y-45844819D01*
X118843619Y-45844819D02*
X119462666Y-45844819D01*
X145386666Y-44844819D02*
X145386666Y-45559104D01*
X145386666Y-45559104D02*
X145339047Y-45701961D01*
X145339047Y-45701961D02*
X145243809Y-45797200D01*
X145243809Y-45797200D02*
X145100952Y-45844819D01*
X145100952Y-45844819D02*
X145005714Y-45844819D01*
X146291428Y-45178152D02*
X146291428Y-45844819D01*
X146053333Y-44797200D02*
X145815238Y-45511485D01*
X145815238Y-45511485D02*
X146434285Y-45511485D01*
X168246666Y-44844819D02*
X168246666Y-45559104D01*
X168246666Y-45559104D02*
X168199047Y-45701961D01*
X168199047Y-45701961D02*
X168103809Y-45797200D01*
X168103809Y-45797200D02*
X167960952Y-45844819D01*
X167960952Y-45844819D02*
X167865714Y-45844819D01*
X169151428Y-44844819D02*
X168960952Y-44844819D01*
X168960952Y-44844819D02*
X168865714Y-44892438D01*
X168865714Y-44892438D02*
X168818095Y-44940057D01*
X168818095Y-44940057D02*
X168722857Y-45082914D01*
X168722857Y-45082914D02*
X168675238Y-45273390D01*
X168675238Y-45273390D02*
X168675238Y-45654342D01*
X168675238Y-45654342D02*
X168722857Y-45749580D01*
X168722857Y-45749580D02*
X168770476Y-45797200D01*
X168770476Y-45797200D02*
X168865714Y-45844819D01*
X168865714Y-45844819D02*
X169056190Y-45844819D01*
X169056190Y-45844819D02*
X169151428Y-45797200D01*
X169151428Y-45797200D02*
X169199047Y-45749580D01*
X169199047Y-45749580D02*
X169246666Y-45654342D01*
X169246666Y-45654342D02*
X169246666Y-45416247D01*
X169246666Y-45416247D02*
X169199047Y-45321009D01*
X169199047Y-45321009D02*
X169151428Y-45273390D01*
X169151428Y-45273390D02*
X169056190Y-45225771D01*
X169056190Y-45225771D02*
X168865714Y-45225771D01*
X168865714Y-45225771D02*
X168770476Y-45273390D01*
X168770476Y-45273390D02*
X168722857Y-45321009D01*
X168722857Y-45321009D02*
X168675238Y-45416247D01*
X158086666Y-85644819D02*
X158086666Y-86359104D01*
X158086666Y-86359104D02*
X158039047Y-86501961D01*
X158039047Y-86501961D02*
X157943809Y-86597200D01*
X157943809Y-86597200D02*
X157800952Y-86644819D01*
X157800952Y-86644819D02*
X157705714Y-86644819D01*
X158705714Y-86073390D02*
X158610476Y-86025771D01*
X158610476Y-86025771D02*
X158562857Y-85978152D01*
X158562857Y-85978152D02*
X158515238Y-85882914D01*
X158515238Y-85882914D02*
X158515238Y-85835295D01*
X158515238Y-85835295D02*
X158562857Y-85740057D01*
X158562857Y-85740057D02*
X158610476Y-85692438D01*
X158610476Y-85692438D02*
X158705714Y-85644819D01*
X158705714Y-85644819D02*
X158896190Y-85644819D01*
X158896190Y-85644819D02*
X158991428Y-85692438D01*
X158991428Y-85692438D02*
X159039047Y-85740057D01*
X159039047Y-85740057D02*
X159086666Y-85835295D01*
X159086666Y-85835295D02*
X159086666Y-85882914D01*
X159086666Y-85882914D02*
X159039047Y-85978152D01*
X159039047Y-85978152D02*
X158991428Y-86025771D01*
X158991428Y-86025771D02*
X158896190Y-86073390D01*
X158896190Y-86073390D02*
X158705714Y-86073390D01*
X158705714Y-86073390D02*
X158610476Y-86121009D01*
X158610476Y-86121009D02*
X158562857Y-86168628D01*
X158562857Y-86168628D02*
X158515238Y-86263866D01*
X158515238Y-86263866D02*
X158515238Y-86454342D01*
X158515238Y-86454342D02*
X158562857Y-86549580D01*
X158562857Y-86549580D02*
X158610476Y-86597200D01*
X158610476Y-86597200D02*
X158705714Y-86644819D01*
X158705714Y-86644819D02*
X158896190Y-86644819D01*
X158896190Y-86644819D02*
X158991428Y-86597200D01*
X158991428Y-86597200D02*
X159039047Y-86549580D01*
X159039047Y-86549580D02*
X159086666Y-86454342D01*
X159086666Y-86454342D02*
X159086666Y-86263866D01*
X159086666Y-86263866D02*
X159039047Y-86168628D01*
X159039047Y-86168628D02*
X158991428Y-86121009D01*
X158991428Y-86121009D02*
X158896190Y-86073390D01*
X132686666Y-85644819D02*
X132686666Y-86359104D01*
X132686666Y-86359104D02*
X132639047Y-86501961D01*
X132639047Y-86501961D02*
X132543809Y-86597200D01*
X132543809Y-86597200D02*
X132400952Y-86644819D01*
X132400952Y-86644819D02*
X132305714Y-86644819D01*
X133210476Y-86644819D02*
X133400952Y-86644819D01*
X133400952Y-86644819D02*
X133496190Y-86597200D01*
X133496190Y-86597200D02*
X133543809Y-86549580D01*
X133543809Y-86549580D02*
X133639047Y-86406723D01*
X133639047Y-86406723D02*
X133686666Y-86216247D01*
X133686666Y-86216247D02*
X133686666Y-85835295D01*
X133686666Y-85835295D02*
X133639047Y-85740057D01*
X133639047Y-85740057D02*
X133591428Y-85692438D01*
X133591428Y-85692438D02*
X133496190Y-85644819D01*
X133496190Y-85644819D02*
X133305714Y-85644819D01*
X133305714Y-85644819D02*
X133210476Y-85692438D01*
X133210476Y-85692438D02*
X133162857Y-85740057D01*
X133162857Y-85740057D02*
X133115238Y-85835295D01*
X133115238Y-85835295D02*
X133115238Y-86073390D01*
X133115238Y-86073390D02*
X133162857Y-86168628D01*
X133162857Y-86168628D02*
X133210476Y-86216247D01*
X133210476Y-86216247D02*
X133305714Y-86263866D01*
X133305714Y-86263866D02*
X133496190Y-86263866D01*
X133496190Y-86263866D02*
X133591428Y-86216247D01*
X133591428Y-86216247D02*
X133639047Y-86168628D01*
X133639047Y-86168628D02*
X133686666Y-86073390D01*
X183274819Y-66519523D02*
X183989104Y-66519523D01*
X183989104Y-66519523D02*
X184131961Y-66567142D01*
X184131961Y-66567142D02*
X184227200Y-66662380D01*
X184227200Y-66662380D02*
X184274819Y-66805237D01*
X184274819Y-66805237D02*
X184274819Y-66900475D01*
X184274819Y-65519523D02*
X184274819Y-66090951D01*
X184274819Y-65805237D02*
X183274819Y-65805237D01*
X183274819Y-65805237D02*
X183417676Y-65900475D01*
X183417676Y-65900475D02*
X183512914Y-65995713D01*
X183512914Y-65995713D02*
X183560533Y-66090951D01*
X183274819Y-65186189D02*
X183274819Y-64519523D01*
X183274819Y-64519523D02*
X184274819Y-64948094D01*
X117234819Y-61439523D02*
X117949104Y-61439523D01*
X117949104Y-61439523D02*
X118091961Y-61487142D01*
X118091961Y-61487142D02*
X118187200Y-61582380D01*
X118187200Y-61582380D02*
X118234819Y-61725237D01*
X118234819Y-61725237D02*
X118234819Y-61820475D01*
X118234819Y-60439523D02*
X118234819Y-61010951D01*
X118234819Y-60725237D02*
X117234819Y-60725237D01*
X117234819Y-60725237D02*
X117377676Y-60820475D01*
X117377676Y-60820475D02*
X117472914Y-60915713D01*
X117472914Y-60915713D02*
X117520533Y-61010951D01*
X117234819Y-59534761D02*
X117234819Y-60010951D01*
X117234819Y-60010951D02*
X117711009Y-60058570D01*
X117711009Y-60058570D02*
X117663390Y-60010951D01*
X117663390Y-60010951D02*
X117615771Y-59915713D01*
X117615771Y-59915713D02*
X117615771Y-59677618D01*
X117615771Y-59677618D02*
X117663390Y-59582380D01*
X117663390Y-59582380D02*
X117711009Y-59534761D01*
X117711009Y-59534761D02*
X117806247Y-59487142D01*
X117806247Y-59487142D02*
X118044342Y-59487142D01*
X118044342Y-59487142D02*
X118139580Y-59534761D01*
X118139580Y-59534761D02*
X118187200Y-59582380D01*
X118187200Y-59582380D02*
X118234819Y-59677618D01*
X118234819Y-59677618D02*
X118234819Y-59915713D01*
X118234819Y-59915713D02*
X118187200Y-60010951D01*
X118187200Y-60010951D02*
X118139580Y-60058570D01*
X145174819Y-81759523D02*
X145889104Y-81759523D01*
X145889104Y-81759523D02*
X146031961Y-81807142D01*
X146031961Y-81807142D02*
X146127200Y-81902380D01*
X146127200Y-81902380D02*
X146174819Y-82045237D01*
X146174819Y-82045237D02*
X146174819Y-82140475D01*
X146174819Y-80759523D02*
X146174819Y-81330951D01*
X146174819Y-81045237D02*
X145174819Y-81045237D01*
X145174819Y-81045237D02*
X145317676Y-81140475D01*
X145317676Y-81140475D02*
X145412914Y-81235713D01*
X145412914Y-81235713D02*
X145460533Y-81330951D01*
X145174819Y-79902380D02*
X145174819Y-80092856D01*
X145174819Y-80092856D02*
X145222438Y-80188094D01*
X145222438Y-80188094D02*
X145270057Y-80235713D01*
X145270057Y-80235713D02*
X145412914Y-80330951D01*
X145412914Y-80330951D02*
X145603390Y-80378570D01*
X145603390Y-80378570D02*
X145984342Y-80378570D01*
X145984342Y-80378570D02*
X146079580Y-80330951D01*
X146079580Y-80330951D02*
X146127200Y-80283332D01*
X146127200Y-80283332D02*
X146174819Y-80188094D01*
X146174819Y-80188094D02*
X146174819Y-79997618D01*
X146174819Y-79997618D02*
X146127200Y-79902380D01*
X146127200Y-79902380D02*
X146079580Y-79854761D01*
X146079580Y-79854761D02*
X145984342Y-79807142D01*
X145984342Y-79807142D02*
X145746247Y-79807142D01*
X145746247Y-79807142D02*
X145651009Y-79854761D01*
X145651009Y-79854761D02*
X145603390Y-79902380D01*
X145603390Y-79902380D02*
X145555771Y-79997618D01*
X145555771Y-79997618D02*
X145555771Y-80188094D01*
X145555771Y-80188094D02*
X145603390Y-80283332D01*
X145603390Y-80283332D02*
X145651009Y-80330951D01*
X145651009Y-80330951D02*
X145746247Y-80378570D01*
X132474819Y-61439523D02*
X133189104Y-61439523D01*
X133189104Y-61439523D02*
X133331961Y-61487142D01*
X133331961Y-61487142D02*
X133427200Y-61582380D01*
X133427200Y-61582380D02*
X133474819Y-61725237D01*
X133474819Y-61725237D02*
X133474819Y-61820475D01*
X133474819Y-60439523D02*
X133474819Y-61010951D01*
X133474819Y-60725237D02*
X132474819Y-60725237D01*
X132474819Y-60725237D02*
X132617676Y-60820475D01*
X132617676Y-60820475D02*
X132712914Y-60915713D01*
X132712914Y-60915713D02*
X132760533Y-61010951D01*
X132474819Y-60106189D02*
X132474819Y-59487142D01*
X132474819Y-59487142D02*
X132855771Y-59820475D01*
X132855771Y-59820475D02*
X132855771Y-59677618D01*
X132855771Y-59677618D02*
X132903390Y-59582380D01*
X132903390Y-59582380D02*
X132951009Y-59534761D01*
X132951009Y-59534761D02*
X133046247Y-59487142D01*
X133046247Y-59487142D02*
X133284342Y-59487142D01*
X133284342Y-59487142D02*
X133379580Y-59534761D01*
X133379580Y-59534761D02*
X133427200Y-59582380D01*
X133427200Y-59582380D02*
X133474819Y-59677618D01*
X133474819Y-59677618D02*
X133474819Y-59963332D01*
X133474819Y-59963332D02*
X133427200Y-60058570D01*
X133427200Y-60058570D02*
X133379580Y-60106189D01*
X124854819Y-61439523D02*
X125569104Y-61439523D01*
X125569104Y-61439523D02*
X125711961Y-61487142D01*
X125711961Y-61487142D02*
X125807200Y-61582380D01*
X125807200Y-61582380D02*
X125854819Y-61725237D01*
X125854819Y-61725237D02*
X125854819Y-61820475D01*
X125854819Y-60439523D02*
X125854819Y-61010951D01*
X125854819Y-60725237D02*
X124854819Y-60725237D01*
X124854819Y-60725237D02*
X124997676Y-60820475D01*
X124997676Y-60820475D02*
X125092914Y-60915713D01*
X125092914Y-60915713D02*
X125140533Y-61010951D01*
X125188152Y-59582380D02*
X125854819Y-59582380D01*
X124807200Y-59820475D02*
X125521485Y-60058570D01*
X125521485Y-60058570D02*
X125521485Y-59439523D01*
X160414819Y-61439523D02*
X161129104Y-61439523D01*
X161129104Y-61439523D02*
X161271961Y-61487142D01*
X161271961Y-61487142D02*
X161367200Y-61582380D01*
X161367200Y-61582380D02*
X161414819Y-61725237D01*
X161414819Y-61725237D02*
X161414819Y-61820475D01*
X161414819Y-60439523D02*
X161414819Y-61010951D01*
X161414819Y-60725237D02*
X160414819Y-60725237D01*
X160414819Y-60725237D02*
X160557676Y-60820475D01*
X160557676Y-60820475D02*
X160652914Y-60915713D01*
X160652914Y-60915713D02*
X160700533Y-61010951D01*
X160414819Y-59820475D02*
X160414819Y-59725237D01*
X160414819Y-59725237D02*
X160462438Y-59629999D01*
X160462438Y-59629999D02*
X160510057Y-59582380D01*
X160510057Y-59582380D02*
X160605295Y-59534761D01*
X160605295Y-59534761D02*
X160795771Y-59487142D01*
X160795771Y-59487142D02*
X161033866Y-59487142D01*
X161033866Y-59487142D02*
X161224342Y-59534761D01*
X161224342Y-59534761D02*
X161319580Y-59582380D01*
X161319580Y-59582380D02*
X161367200Y-59629999D01*
X161367200Y-59629999D02*
X161414819Y-59725237D01*
X161414819Y-59725237D02*
X161414819Y-59820475D01*
X161414819Y-59820475D02*
X161367200Y-59915713D01*
X161367200Y-59915713D02*
X161319580Y-59963332D01*
X161319580Y-59963332D02*
X161224342Y-60010951D01*
X161224342Y-60010951D02*
X161033866Y-60058570D01*
X161033866Y-60058570D02*
X160795771Y-60058570D01*
X160795771Y-60058570D02*
X160605295Y-60010951D01*
X160605295Y-60010951D02*
X160510057Y-59963332D01*
X160510057Y-59963332D02*
X160462438Y-59915713D01*
X160462438Y-59915713D02*
X160414819Y-59820475D01*
X152794819Y-61439523D02*
X153509104Y-61439523D01*
X153509104Y-61439523D02*
X153651961Y-61487142D01*
X153651961Y-61487142D02*
X153747200Y-61582380D01*
X153747200Y-61582380D02*
X153794819Y-61725237D01*
X153794819Y-61725237D02*
X153794819Y-61820475D01*
X153794819Y-60439523D02*
X153794819Y-61010951D01*
X153794819Y-60725237D02*
X152794819Y-60725237D01*
X152794819Y-60725237D02*
X152937676Y-60820475D01*
X152937676Y-60820475D02*
X153032914Y-60915713D01*
X153032914Y-60915713D02*
X153080533Y-61010951D01*
X153794819Y-59487142D02*
X153794819Y-60058570D01*
X153794819Y-59772856D02*
X152794819Y-59772856D01*
X152794819Y-59772856D02*
X152937676Y-59868094D01*
X152937676Y-59868094D02*
X153032914Y-59963332D01*
X153032914Y-59963332D02*
X153080533Y-60058570D01*
X177978095Y-77404819D02*
X177978095Y-78214342D01*
X177978095Y-78214342D02*
X178025714Y-78309580D01*
X178025714Y-78309580D02*
X178073333Y-78357200D01*
X178073333Y-78357200D02*
X178168571Y-78404819D01*
X178168571Y-78404819D02*
X178359047Y-78404819D01*
X178359047Y-78404819D02*
X178454285Y-78357200D01*
X178454285Y-78357200D02*
X178501904Y-78309580D01*
X178501904Y-78309580D02*
X178549523Y-78214342D01*
X178549523Y-78214342D02*
X178549523Y-77404819D01*
X179549523Y-78404819D02*
X178978095Y-78404819D01*
X179263809Y-78404819D02*
X179263809Y-77404819D01*
X179263809Y-77404819D02*
X179168571Y-77547676D01*
X179168571Y-77547676D02*
X179073333Y-77642914D01*
X179073333Y-77642914D02*
X178978095Y-77690533D01*
X125486667Y-79107200D02*
X125629524Y-79154819D01*
X125629524Y-79154819D02*
X125867619Y-79154819D01*
X125867619Y-79154819D02*
X125962857Y-79107200D01*
X125962857Y-79107200D02*
X126010476Y-79059580D01*
X126010476Y-79059580D02*
X126058095Y-78964342D01*
X126058095Y-78964342D02*
X126058095Y-78869104D01*
X126058095Y-78869104D02*
X126010476Y-78773866D01*
X126010476Y-78773866D02*
X125962857Y-78726247D01*
X125962857Y-78726247D02*
X125867619Y-78678628D01*
X125867619Y-78678628D02*
X125677143Y-78631009D01*
X125677143Y-78631009D02*
X125581905Y-78583390D01*
X125581905Y-78583390D02*
X125534286Y-78535771D01*
X125534286Y-78535771D02*
X125486667Y-78440533D01*
X125486667Y-78440533D02*
X125486667Y-78345295D01*
X125486667Y-78345295D02*
X125534286Y-78250057D01*
X125534286Y-78250057D02*
X125581905Y-78202438D01*
X125581905Y-78202438D02*
X125677143Y-78154819D01*
X125677143Y-78154819D02*
X125915238Y-78154819D01*
X125915238Y-78154819D02*
X126058095Y-78202438D01*
X126391429Y-78154819D02*
X126629524Y-79154819D01*
X126629524Y-79154819D02*
X126820000Y-78440533D01*
X126820000Y-78440533D02*
X127010476Y-79154819D01*
X127010476Y-79154819D02*
X127248572Y-78154819D01*
X128153333Y-79154819D02*
X127581905Y-79154819D01*
X127867619Y-79154819D02*
X127867619Y-78154819D01*
X127867619Y-78154819D02*
X127772381Y-78297676D01*
X127772381Y-78297676D02*
X127677143Y-78392914D01*
X127677143Y-78392914D02*
X127581905Y-78440533D01*
X145174819Y-61439523D02*
X145889104Y-61439523D01*
X145889104Y-61439523D02*
X146031961Y-61487142D01*
X146031961Y-61487142D02*
X146127200Y-61582380D01*
X146127200Y-61582380D02*
X146174819Y-61725237D01*
X146174819Y-61725237D02*
X146174819Y-61820475D01*
X146174819Y-60439523D02*
X146174819Y-61010951D01*
X146174819Y-60725237D02*
X145174819Y-60725237D01*
X145174819Y-60725237D02*
X145317676Y-60820475D01*
X145317676Y-60820475D02*
X145412914Y-60915713D01*
X145412914Y-60915713D02*
X145460533Y-61010951D01*
X145270057Y-60058570D02*
X145222438Y-60010951D01*
X145222438Y-60010951D02*
X145174819Y-59915713D01*
X145174819Y-59915713D02*
X145174819Y-59677618D01*
X145174819Y-59677618D02*
X145222438Y-59582380D01*
X145222438Y-59582380D02*
X145270057Y-59534761D01*
X145270057Y-59534761D02*
X145365295Y-59487142D01*
X145365295Y-59487142D02*
X145460533Y-59487142D01*
X145460533Y-59487142D02*
X145603390Y-59534761D01*
X145603390Y-59534761D02*
X146174819Y-60106189D01*
X146174819Y-60106189D02*
X146174819Y-59487142D01*
D11*
X197790000Y-93650000D02*
X193710000Y-93650000D01*
X197790000Y-47930000D02*
X197790000Y-93650000D01*
X193710000Y-93650000D02*
X192710000Y-92650000D01*
X192710000Y-92650000D02*
X192710000Y-47930000D01*
X192710000Y-47930000D02*
X197790000Y-47930000D01*
X126670000Y-98730000D02*
X126670000Y-96825000D01*
X146990000Y-98730000D02*
X126670000Y-98730000D01*
X126670000Y-96825000D02*
X127305000Y-96190000D01*
X127305000Y-96190000D02*
X146990000Y-96190000D01*
X146990000Y-96190000D02*
X146990000Y-98730000D01*
X149530000Y-98730000D02*
X149530000Y-96825000D01*
X169850000Y-98730000D02*
X149530000Y-98730000D01*
X149530000Y-96825000D02*
X150165000Y-96190000D01*
X150165000Y-96190000D02*
X169850000Y-96190000D01*
X169850000Y-96190000D02*
X169850000Y-98730000D01*
X172390000Y-98730000D02*
X172390000Y-96825000D01*
X192710000Y-98730000D02*
X172390000Y-98730000D01*
X172390000Y-96825000D02*
X173025000Y-96190000D01*
X173025000Y-96190000D02*
X192710000Y-96190000D01*
X192710000Y-96190000D02*
X192710000Y-98730000D01*
X117526000Y-50470000D02*
X117526000Y-48565000D01*
X142926000Y-50470000D02*
X117526000Y-50470000D01*
X117526000Y-48565000D02*
X118161000Y-47930000D01*
X118161000Y-47930000D02*
X142926000Y-47930000D01*
X142926000Y-47930000D02*
X142926000Y-50470000D01*
X144450000Y-50470000D02*
X144450000Y-48565000D01*
X164770000Y-50470000D02*
X144450000Y-50470000D01*
X144450000Y-48565000D02*
X145085000Y-47930000D01*
X145085000Y-47930000D02*
X164770000Y-47930000D01*
X164770000Y-47930000D02*
X164770000Y-50470000D01*
X167310000Y-50470000D02*
X167310000Y-48565000D01*
X187630000Y-50470000D02*
X167310000Y-50470000D01*
X167310000Y-48565000D02*
X167945000Y-47930000D01*
X167945000Y-47930000D02*
X187630000Y-47930000D01*
X187630000Y-47930000D02*
X187630000Y-50470000D01*
X152840000Y-84990000D02*
X154840000Y-84990000D01*
X152840000Y-86240000D02*
X152840000Y-84990000D01*
X153340000Y-85490000D02*
X153340000Y-92740000D01*
X153340000Y-92740000D02*
X163500000Y-92740000D01*
X163500000Y-85490000D02*
X153340000Y-85490000D01*
X163500000Y-92740000D02*
X163500000Y-85490000D01*
X127440000Y-84990000D02*
X129440000Y-84990000D01*
X127440000Y-86240000D02*
X127440000Y-84990000D01*
X127940000Y-85490000D02*
X127940000Y-92740000D01*
X127940000Y-92740000D02*
X138100000Y-92740000D01*
X138100000Y-85490000D02*
X127940000Y-85490000D01*
X138100000Y-92740000D02*
X138100000Y-85490000D01*
X182550000Y-58725000D02*
X183185000Y-58090000D01*
X182550000Y-73330000D02*
X182550000Y-58725000D01*
X183185000Y-58090000D02*
X185090000Y-58090000D01*
X185090000Y-58090000D02*
X185090000Y-73330000D01*
X185090000Y-73330000D02*
X182550000Y-73330000D01*
X116510000Y-56185000D02*
X117145000Y-55550000D01*
X116510000Y-65710000D02*
X116510000Y-56185000D01*
X117145000Y-55550000D02*
X119050000Y-55550000D01*
X119050000Y-55550000D02*
X119050000Y-65710000D01*
X119050000Y-65710000D02*
X116510000Y-65710000D01*
X144450000Y-73965000D02*
X145085000Y-73330000D01*
X144450000Y-88570000D02*
X144450000Y-73965000D01*
X145085000Y-73330000D02*
X146990000Y-73330000D01*
X146990000Y-73330000D02*
X146990000Y-88570000D01*
X146990000Y-88570000D02*
X144450000Y-88570000D01*
X131750000Y-56185000D02*
X132385000Y-55550000D01*
X131750000Y-65710000D02*
X131750000Y-56185000D01*
X132385000Y-55550000D02*
X134290000Y-55550000D01*
X134290000Y-55550000D02*
X134290000Y-65710000D01*
X134290000Y-65710000D02*
X131750000Y-65710000D01*
X124130000Y-56185000D02*
X124765000Y-55550000D01*
X124130000Y-65710000D02*
X124130000Y-56185000D01*
X124765000Y-55550000D02*
X126670000Y-55550000D01*
X126670000Y-55550000D02*
X126670000Y-65710000D01*
X126670000Y-65710000D02*
X124130000Y-65710000D01*
X159690000Y-56185000D02*
X160325000Y-55550000D01*
X159690000Y-65710000D02*
X159690000Y-56185000D01*
X160325000Y-55550000D02*
X162230000Y-55550000D01*
X162230000Y-55550000D02*
X162230000Y-65710000D01*
X162230000Y-65710000D02*
X159690000Y-65710000D01*
X152070000Y-56185000D02*
X152705000Y-55550000D01*
X152070000Y-65710000D02*
X152070000Y-56185000D01*
X152705000Y-55550000D02*
X154610000Y-55550000D01*
X154610000Y-55550000D02*
X154610000Y-65710000D01*
X154610000Y-65710000D02*
X152070000Y-65710000D01*
X173740000Y-79070000D02*
X173740000Y-83470000D01*
X173740000Y-80340000D02*
X183740000Y-80340000D01*
X173740000Y-83470000D02*
X183740000Y-83470000D01*
X176890000Y-79070000D02*
X176890000Y-80340000D01*
X180590000Y-79070000D02*
X180590000Y-80340000D01*
X183740000Y-79070000D02*
X173740000Y-79070000D01*
X183740000Y-83470000D02*
X183740000Y-79070000D01*
X120910000Y-72600000D02*
X120910000Y-79400000D01*
X120910000Y-73600000D02*
X121910000Y-74600000D01*
X120910000Y-75600000D02*
X121910000Y-74600000D01*
X120910000Y-79400000D02*
X132730000Y-79400000D01*
X122110000Y-70900000D02*
X131530000Y-70900000D01*
X122110000Y-72600000D02*
X122110000Y-70900000D01*
X131530000Y-70900000D02*
X131530000Y-72600000D01*
X132730000Y-72600000D02*
X120910000Y-72600000D01*
X132730000Y-79400000D02*
X132730000Y-72600000D01*
X144450000Y-56185000D02*
X145085000Y-55550000D01*
X144450000Y-65710000D02*
X144450000Y-56185000D01*
X145085000Y-55550000D02*
X146990000Y-55550000D01*
X146990000Y-55550000D02*
X146990000Y-65710000D01*
X146990000Y-65710000D02*
X144450000Y-65710000D01*
M02*
