M48
; DRILL file {KiCad 7.0.7} date Tue Nov 28 11:25:14 2023
; FORMAT={-:-/ absolute / metric / decimal}
; #@! TF.CreationDate,2023-11-28T11:25:14-05:00
; #@! TF.GenerationSoftware,Kicad,Pcbnew,7.0.7
; #@! TF.FileFunction,Plated,1,2,PTH
FMAT,2
METRIC
; #@! TA.AperFunction,Plated,PTH,ComponentDrill
T1C1.000
; #@! TA.AperFunction,Plated,PTH,ComponentDrill
T2C1.100
; #@! TA.AperFunction,Plated,PTH,ComponentDrill
T3C1.200
; #@! TA.AperFunction,Plated,PTH,ComponentDrill
T4C1.700
%
G90
G05
T1
X117.78Y-56.82
X117.78Y-59.36
X117.78Y-61.9
X117.78Y-64.44
X118.796Y-49.2
X121.336Y-49.2
X123.876Y-49.2
X125.4Y-56.82
X125.4Y-59.36
X125.4Y-61.9
X125.4Y-64.44
X126.416Y-49.2
X127.94Y-97.46
X128.956Y-49.2
X130.48Y-97.46
X131.496Y-49.2
X133.02Y-56.82
X133.02Y-59.36
X133.02Y-61.9
X133.02Y-64.44
X133.02Y-97.46
X134.036Y-49.2
X135.56Y-97.46
X136.576Y-49.2
X138.1Y-97.46
X139.116Y-49.2
X140.64Y-97.46
X141.656Y-49.2
X143.18Y-97.46
X145.72Y-49.2
X145.72Y-56.82
X145.72Y-59.36
X145.72Y-61.9
X145.72Y-64.44
X145.72Y-74.6
X145.72Y-77.14
X145.72Y-79.68
X145.72Y-82.22
X145.72Y-84.76
X145.72Y-87.3
X145.72Y-97.46
X148.26Y-49.2
X150.8Y-49.2
X150.8Y-97.46
X153.34Y-49.2
X153.34Y-56.82
X153.34Y-59.36
X153.34Y-61.9
X153.34Y-64.44
X153.34Y-97.46
X155.88Y-49.2
X155.88Y-97.46
X158.42Y-49.2
X158.42Y-97.46
X160.96Y-49.2
X160.96Y-56.82
X160.96Y-59.36
X160.96Y-61.9
X160.96Y-64.44
X160.96Y-97.46
X163.5Y-49.2
X163.5Y-97.46
X166.04Y-97.46
X168.58Y-49.2
X168.58Y-97.46
X171.12Y-49.2
X173.66Y-49.2
X173.66Y-97.46
X176.2Y-49.2
X176.2Y-97.46
X178.74Y-49.2
X178.74Y-97.46
X181.28Y-49.2
X181.28Y-97.46
X183.82Y-49.2
X183.82Y-59.36
X183.82Y-61.9
X183.82Y-64.44
X183.82Y-66.98
X183.82Y-69.52
X183.82Y-72.06
X183.82Y-97.46
X186.36Y-49.2
X186.36Y-97.46
X188.9Y-97.46
X191.44Y-97.46
X193.98Y-49.2
X193.98Y-51.74
X193.98Y-54.28
X193.98Y-56.82
X193.98Y-59.36
X193.98Y-61.9
X193.98Y-64.44
X193.98Y-66.98
X193.98Y-69.52
X193.98Y-72.06
X193.98Y-74.6
X193.98Y-77.14
X193.98Y-79.68
X193.98Y-82.22
X193.98Y-84.76
X193.98Y-87.3
X193.98Y-89.84
X193.98Y-92.38
X196.52Y-49.2
X196.52Y-51.74
X196.52Y-54.28
X196.52Y-56.82
X196.52Y-59.36
X196.52Y-61.9
X196.52Y-64.44
X196.52Y-66.98
X196.52Y-69.52
X196.52Y-72.06
X196.52Y-74.6
X196.52Y-77.14
X196.52Y-79.68
X196.52Y-82.22
X196.52Y-84.76
X196.52Y-87.3
X196.52Y-89.84
X196.52Y-92.38
T2
X176.2Y-82.22
X178.74Y-82.22
X181.28Y-82.22
T3
X130.48Y-89.84
X135.56Y-89.84
X155.88Y-89.84
X160.96Y-89.84
T4
X122.86Y-74.6
X126.82Y-74.6
X130.78Y-74.6
T0
M30
