G04 #@! TF.GenerationSoftware,KiCad,Pcbnew,7.0.7*
G04 #@! TF.CreationDate,2023-11-29T17:44:09-05:00*
G04 #@! TF.ProjectId,PCB V1 ATV,50434220-5631-4204-9154-562e6b696361,rev?*
G04 #@! TF.SameCoordinates,Original*
G04 #@! TF.FileFunction,Soldermask,Top*
G04 #@! TF.FilePolarity,Negative*
%FSLAX46Y46*%
G04 Gerber Fmt 4.6, Leading zero omitted, Abs format (unit mm)*
G04 Created by KiCad (PCBNEW 7.0.7) date 2023-11-29 17:44:09*
%MOMM*%
%LPD*%
G01*
G04 APERTURE LIST*
G04 Aperture macros list*
%AMRoundRect*
0 Rectangle with rounded corners*
0 $1 Rounding radius*
0 $2 $3 $4 $5 $6 $7 $8 $9 X,Y pos of 4 corners*
0 Add a 4 corners polygon primitive as box body*
4,1,4,$2,$3,$4,$5,$6,$7,$8,$9,$2,$3,0*
0 Add four circle primitives for the rounded corners*
1,1,$1+$1,$2,$3*
1,1,$1+$1,$4,$5*
1,1,$1+$1,$6,$7*
1,1,$1+$1,$8,$9*
0 Add four rect primitives between the rounded corners*
20,1,$1+$1,$2,$3,$4,$5,0*
20,1,$1+$1,$4,$5,$6,$7,0*
20,1,$1+$1,$6,$7,$8,$9,0*
20,1,$1+$1,$8,$9,$2,$3,0*%
G04 Aperture macros list end*
%ADD10R,1.700000X1.700000*%
%ADD11O,1.700000X1.700000*%
%ADD12RoundRect,0.250000X-0.650000X-1.550000X0.650000X-1.550000X0.650000X1.550000X-0.650000X1.550000X0*%
%ADD13O,1.800000X3.600000*%
%ADD14C,3.200000*%
%ADD15R,1.905000X2.000000*%
%ADD16O,1.905000X2.000000*%
%ADD17RoundRect,0.250001X-1.099999X-1.099999X1.099999X-1.099999X1.099999X1.099999X-1.099999X1.099999X0*%
%ADD18C,2.700000*%
G04 APERTURE END LIST*
D10*
X193980000Y-92380000D03*
D11*
X196520000Y-92380000D03*
X193980000Y-89840000D03*
X196520000Y-89840000D03*
X193980000Y-87300000D03*
X196520000Y-87300000D03*
X193980000Y-84760000D03*
X196520000Y-84760000D03*
X193980000Y-82220000D03*
X196520000Y-82220000D03*
X193980000Y-79680000D03*
X196520000Y-79680000D03*
X193980000Y-77140000D03*
X196520000Y-77140000D03*
X193980000Y-74600000D03*
X196520000Y-74600000D03*
X193980000Y-72060000D03*
X196520000Y-72060000D03*
X193980000Y-69520000D03*
X196520000Y-69520000D03*
X193980000Y-66980000D03*
X196520000Y-66980000D03*
X193980000Y-64440000D03*
X196520000Y-64440000D03*
X193980000Y-61900000D03*
X196520000Y-61900000D03*
X193980000Y-59360000D03*
X196520000Y-59360000D03*
X193980000Y-56820000D03*
X196520000Y-56820000D03*
X193980000Y-54280000D03*
X196520000Y-54280000D03*
X193980000Y-51740000D03*
X196520000Y-51740000D03*
X193980000Y-49200000D03*
X196520000Y-49200000D03*
D10*
X127940000Y-97460000D03*
D11*
X130480000Y-97460000D03*
X133020000Y-97460000D03*
X135560000Y-97460000D03*
X138100000Y-97460000D03*
X140640000Y-97460000D03*
X143180000Y-97460000D03*
X145720000Y-97460000D03*
D10*
X150800000Y-97460000D03*
D11*
X153340000Y-97460000D03*
X155880000Y-97460000D03*
X158420000Y-97460000D03*
X160960000Y-97460000D03*
X163500000Y-97460000D03*
X166040000Y-97460000D03*
X168580000Y-97460000D03*
D10*
X173660000Y-97460000D03*
D11*
X176200000Y-97460000D03*
X178740000Y-97460000D03*
X181280000Y-97460000D03*
X183820000Y-97460000D03*
X186360000Y-97460000D03*
X188900000Y-97460000D03*
X191440000Y-97460000D03*
D10*
X118796000Y-49200000D03*
D11*
X121336000Y-49200000D03*
X123876000Y-49200000D03*
X126416000Y-49200000D03*
X128956000Y-49200000D03*
X131496000Y-49200000D03*
X134036000Y-49200000D03*
X136576000Y-49200000D03*
X139116000Y-49200000D03*
X141656000Y-49200000D03*
D10*
X145720000Y-49200000D03*
D11*
X148260000Y-49200000D03*
X150800000Y-49200000D03*
X153340000Y-49200000D03*
X155880000Y-49200000D03*
X158420000Y-49200000D03*
X160960000Y-49200000D03*
X163500000Y-49200000D03*
D10*
X168580000Y-49200000D03*
D11*
X171120000Y-49200000D03*
X173660000Y-49200000D03*
X176200000Y-49200000D03*
X178740000Y-49200000D03*
X181280000Y-49200000D03*
X183820000Y-49200000D03*
X186360000Y-49200000D03*
D12*
X155880000Y-89840000D03*
D13*
X160960000Y-89840000D03*
D14*
X196520000Y-97460000D03*
D12*
X130480000Y-89840000D03*
D13*
X135560000Y-89840000D03*
D10*
X183820000Y-59360000D03*
D11*
X183820000Y-61900000D03*
X183820000Y-64440000D03*
X183820000Y-66980000D03*
X183820000Y-69520000D03*
X183820000Y-72060000D03*
D10*
X117780000Y-56820000D03*
D11*
X117780000Y-59360000D03*
X117780000Y-61900000D03*
X117780000Y-64440000D03*
D14*
X115240000Y-49200000D03*
D10*
X145720000Y-74600000D03*
D11*
X145720000Y-77140000D03*
X145720000Y-79680000D03*
X145720000Y-82220000D03*
X145720000Y-84760000D03*
X145720000Y-87300000D03*
D10*
X133020000Y-56820000D03*
D11*
X133020000Y-59360000D03*
X133020000Y-61900000D03*
X133020000Y-64440000D03*
D10*
X125400000Y-56820000D03*
D11*
X125400000Y-59360000D03*
X125400000Y-61900000D03*
X125400000Y-64440000D03*
D10*
X160960000Y-56820000D03*
D11*
X160960000Y-59360000D03*
X160960000Y-61900000D03*
X160960000Y-64440000D03*
D10*
X153340000Y-56820000D03*
D11*
X153340000Y-59360000D03*
X153340000Y-61900000D03*
X153340000Y-64440000D03*
D15*
X176200000Y-82220000D03*
D16*
X178740000Y-82220000D03*
X181280000Y-82220000D03*
D17*
X122860000Y-74600000D03*
D18*
X126820000Y-74600000D03*
X130780000Y-74600000D03*
D10*
X145720000Y-56820000D03*
D11*
X145720000Y-59360000D03*
X145720000Y-61900000D03*
X145720000Y-64440000D03*
D14*
X113970000Y-97460000D03*
X166040000Y-64440000D03*
X166040000Y-92380000D03*
X190170000Y-49200000D03*
M02*
